# Blender 4.5.4 LTS
# www.blender.org
mtllib janela.mtl
o Cube.004
v -6.000000 -1.000000 0.050000
v -6.000000 1.000000 0.050000
v -6.000000 -1.000000 -0.050000
v -6.000000 1.000000 -0.050000
v -4.000000 -1.000000 0.050000
v -4.000000 1.000000 0.050000
v -4.000000 -1.000000 -0.050000
v -4.000000 1.000000 -0.050000
v -4.105393 0.902945 0.050000
v -5.900040 0.900306 0.050000
v -5.894762 0.103272 0.050000
v -4.108032 0.095354 0.050000
v -4.105393 0.902945 -0.050000
v -5.900040 0.900306 -0.050000
v -5.894762 0.103272 -0.050000
v -4.108032 0.095354 -0.050000
v -4.108032 -0.099946 0.050000
v -5.897401 -0.097307 0.050000
v -5.900040 -0.896980 0.050000
v -4.102754 -0.896980 0.050000
v -4.108033 -0.099946 -0.050000
v -5.897401 -0.097306 -0.050000
v -5.900040 -0.896980 -0.050000
v -4.102754 -0.896980 -0.050000
v -4.105393 0.902945 0.050000
v -5.900040 0.900306 0.050000
v -5.894762 0.103272 0.050000
v -4.108032 0.095354 0.050000
v -4.105393 0.902945 -0.050000
v -5.900040 0.900306 -0.050000
v -5.894762 0.103272 -0.050000
v -4.108032 0.095354 -0.050000
v -4.108032 -0.099946 0.050000
v -5.897401 -0.097307 0.050000
v -5.900040 -0.896980 0.050000
v -4.102754 -0.896980 0.050000
v -4.108033 -0.099946 -0.050000
v -5.897401 -0.097306 -0.050000
v -5.900040 -0.896980 -0.050000
v -4.102754 -0.896980 -0.050000
vn -1.0000 -0.0000 -0.0000
vn -0.0000 -0.0000 -1.0000
vn 1.0000 -0.0000 -0.0000
vn -0.0000 -0.0000 1.0000
vn -0.0000 -1.0000 -0.0000
vn -0.0000 1.0000 -0.0000
vt 0.375000 0.000000
vt 0.625000 0.000000
vt 0.625000 0.250000
vt 0.375000 0.250000
vt 0.387877 0.262495
vt 0.387877 0.487156
vt 0.375000 0.500000
vt 0.625000 0.500000
vt 0.625000 0.750000
vt 0.375000 0.750000
vt 0.387877 0.762844
vt 0.387877 0.987505
vt 0.375000 1.000000
vt 0.125000 0.500000
vt 0.125000 0.750000
vt 0.875000 0.500000
vt 0.875000 0.750000
vt 0.625000 1.000000
vt 0.612538 0.987505
vt 0.612868 0.763174
vt 0.612868 0.486826
vt 0.612538 0.262495
vt 0.487837 0.987175
vt 0.487507 0.763504
vt 0.511919 0.763504
vt 0.512909 0.986845
vt 0.487507 0.486496
vt 0.487837 0.262825
vt 0.512909 0.263155
vt 0.511919 0.486496
s 0
usemtl Material.002
f 1/1/1 2/2/1 4/3/1 3/4/1
f 3/4/2 23/5/2 24/6/2 7/7/2
f 7/7/3 8/8/3 6/9/3 5/10/3
f 5/10/4 20/11/4 19/12/4 1/13/4
f 3/14/5 7/7/5 5/10/5 1/15/5
f 8/8/6 4/16/6 2/17/6 6/9/6
f 2/18/4 10/19/4 9/20/4 6/9/4
f 8/8/2 13/21/2 14/22/2 4/3/2
f 1/13/4 19/12/4 18/23/4 17/24/4 20/11/4 5/10/4 6/9/4 9/20/4 12/25/4 11/26/4 10/19/4 2/18/4
f 7/7/2 24/6/2 21/27/2 22/28/2 23/5/2 3/4/2 4/3/2 14/22/2 15/29/2 16/30/2 13/21/2 8/8/2
usemtl Material.004
f 28/25/4 25/20/4 26/19/4 27/26/4
f 32/30/2 31/29/2 30/22/2 29/21/2
f 33/24/4 34/23/4 35/12/4 36/11/4
f 37/27/2 40/6/2 39/5/2 38/28/2
o Cube.005
v -8.000000 -1.000000 0.050000
v -8.000000 1.000000 0.050000
v -8.000000 -1.000000 -0.050000
v -8.000000 1.000000 -0.050000
v -6.000000 -1.000000 0.050000
v -6.000000 1.000000 0.050000
v -6.000000 -1.000000 -0.050000
v -6.000000 1.000000 -0.050000
v -6.105498 0.892388 -0.050000
v -7.908062 0.895028 -0.050000
v -7.905423 -0.891702 -0.050000
v -6.108138 -0.912815 -0.050000
v -6.105499 0.892388 0.050000
v -7.908062 0.895028 0.050000
v -7.905423 -0.891702 0.050000
v -6.108138 -0.912815 0.050000
vn -1.0000 -0.0000 -0.0000
vn -0.0000 -0.0000 -1.0000
vn 1.0000 -0.0000 -0.0000
vn -0.0000 -0.0000 1.0000
vn -0.0000 -1.0000 -0.0000
vn -0.0000 1.0000 -0.0000
vt 0.375000 0.000000
vt 0.625000 0.000000
vt 0.625000 0.250000
vt 0.375000 0.250000
vt 0.611878 0.261492
vt 0.388537 0.261822
vt 0.385898 0.486483
vt 0.611549 0.486813
vt 0.625000 0.500000
vt 0.375000 0.500000
vt 0.625000 0.750000
vt 0.375000 0.750000
vt 0.611548 0.763187
vt 0.385898 0.763517
vt 0.388537 0.988178
vt 0.611879 0.988508
vt 0.625000 1.000000
vt 0.375000 1.000000
vt 0.125000 0.500000
vt 0.125000 0.750000
vt 0.875000 0.500000
vt 0.875000 0.750000
s 0
usemtl Material.002
f 41/31/7 42/32/7 44/33/7 43/34/7
f 43/34/8 44/33/8 50/35/8 51/36/8 52/37/8 49/38/8 48/39/8 47/40/8
f 47/40/9 48/39/9 46/41/9 45/42/9
f 45/42/10 46/41/10 53/43/10 56/44/10 55/45/10 54/46/10 42/47/10 41/48/10
f 43/49/11 47/40/11 45/42/11 41/50/11
f 48/39/12 44/51/12 42/52/12 46/41/12
f 48/39/8 49/38/8 50/35/8 44/33/8
f 42/47/10 54/46/10 53/43/10 46/41/10
usemtl Material.004
f 52/37/8 51/36/8 50/35/8 49/38/8
f 56/44/10 53/43/10 54/46/10 55/45/10
o Cube.001
v -4.000000 -1.000000 0.050000
v -4.000000 1.000000 0.050000
v -4.000000 -1.000000 -0.050000
v -4.000000 1.000000 -0.050000
v -2.000000 -1.000000 0.050000
v -2.000000 1.000000 0.050000
v -2.000000 -1.000000 -0.050000
v -2.000000 1.000000 -0.050000
v -2.105393 0.902945 0.050000
v -3.900040 0.900306 0.050000
v -3.894762 0.103272 0.050000
v -2.108032 0.095354 0.050000
v -2.105393 0.902945 -0.050000
v -3.900040 0.900306 -0.050000
v -3.894762 0.103272 -0.050000
v -2.108032 0.095354 -0.050000
v -2.108032 -0.099946 0.050000
v -3.897401 -0.097307 0.050000
v -3.900040 -0.896980 0.050000
v -2.102754 -0.896980 0.050000
v -2.108033 -0.099946 -0.050000
v -3.897401 -0.097306 -0.050000
v -3.900040 -0.896980 -0.050000
v -2.102754 -0.896980 -0.050000
v -2.105393 0.902945 0.050000
v -3.900040 0.900306 0.050000
v -3.894762 0.103272 0.050000
v -2.108032 0.095354 0.050000
v -2.105393 0.902945 -0.050000
v -3.900040 0.900306 -0.050000
v -3.894762 0.103272 -0.050000
v -2.108032 0.095354 -0.050000
v -2.108032 -0.099946 0.050000
v -3.897401 -0.097307 0.050000
v -3.900040 -0.896980 0.050000
v -2.102754 -0.896980 0.050000
v -2.108033 -0.099946 -0.050000
v -3.897401 -0.097306 -0.050000
v -3.900040 -0.896980 -0.050000
v -2.102754 -0.896980 -0.050000
vn -1.0000 -0.0000 -0.0000
vn -0.0000 -0.0000 -1.0000
vn 1.0000 -0.0000 -0.0000
vn -0.0000 -0.0000 1.0000
vn -0.0000 -1.0000 -0.0000
vn -0.0000 1.0000 -0.0000
vt 0.375000 0.000000
vt 0.625000 0.000000
vt 0.625000 0.250000
vt 0.375000 0.250000
vt 0.387877 0.262495
vt 0.387877 0.487156
vt 0.375000 0.500000
vt 0.625000 0.500000
vt 0.625000 0.750000
vt 0.375000 0.750000
vt 0.387877 0.762844
vt 0.387877 0.987505
vt 0.375000 1.000000
vt 0.125000 0.500000
vt 0.125000 0.750000
vt 0.875000 0.500000
vt 0.875000 0.750000
vt 0.625000 1.000000
vt 0.612538 0.987505
vt 0.612868 0.763174
vt 0.612868 0.486826
vt 0.612538 0.262495
vt 0.487837 0.987175
vt 0.487507 0.763504
vt 0.511919 0.763504
vt 0.512909 0.986845
vt 0.487507 0.486496
vt 0.487837 0.262825
vt 0.512909 0.263155
vt 0.511919 0.486496
s 0
usemtl Material.002
f 57/53/13 58/54/13 60/55/13 59/56/13
f 59/56/14 79/57/14 80/58/14 63/59/14
f 63/59/15 64/60/15 62/61/15 61/62/15
f 61/62/16 76/63/16 75/64/16 57/65/16
f 59/66/17 63/59/17 61/62/17 57/67/17
f 64/60/18 60/68/18 58/69/18 62/61/18
f 58/70/16 66/71/16 65/72/16 62/61/16
f 64/60/14 69/73/14 70/74/14 60/55/14
f 57/65/16 75/64/16 74/75/16 73/76/16 76/63/16 61/62/16 62/61/16 65/72/16 68/77/16 67/78/16 66/71/16 58/70/16
f 63/59/14 80/58/14 77/79/14 78/80/14 79/57/14 59/56/14 60/55/14 70/74/14 71/81/14 72/82/14 69/73/14 64/60/14
usemtl Material.004
f 84/77/16 81/72/16 82/71/16 83/78/16
f 88/82/14 87/81/14 86/74/14 85/73/14
f 89/76/16 90/75/16 91/64/16 92/63/16
f 93/79/14 96/58/14 95/57/14 94/80/14
o Cube.002
v -2.000000 -1.000000 0.050000
v -2.000000 1.000000 0.050000
v -2.000000 -1.000000 -0.050000
v -2.000000 1.000000 -0.050000
v 0.000000 -1.000000 0.050000
v 0.000000 1.000000 0.050000
v 0.000000 -1.000000 -0.050000
v 0.000000 1.000000 -0.050000
v -0.105393 0.902945 0.050000
v -1.900040 0.900306 0.050000
v -1.894762 0.103272 0.050000
v -0.108032 0.095354 0.050000
v -0.105393 0.902945 -0.050000
v -1.900040 0.900306 -0.050000
v -1.894762 0.103272 -0.050000
v -0.108032 0.095354 -0.050000
v -0.108032 -0.099946 0.050000
v -1.897401 -0.097307 0.050000
v -1.900040 -0.896980 0.050000
v -0.102754 -0.896980 0.050000
v -0.108033 -0.099946 -0.050000
v -1.897401 -0.097306 -0.050000
v -1.900040 -0.896980 -0.050000
v -0.102754 -0.896980 -0.050000
v -0.105393 0.902945 0.050000
v -1.900040 0.900306 0.050000
v -1.894762 0.103272 0.050000
v -0.108032 0.095354 0.050000
v -0.105393 0.902945 -0.050000
v -1.900040 0.900306 -0.050000
v -1.894762 0.103272 -0.050000
v -0.108032 0.095354 -0.050000
v -0.108032 -0.099946 0.050000
v -1.897401 -0.097307 0.050000
v -1.900040 -0.896980 0.050000
v -0.102754 -0.896980 0.050000
v -0.108033 -0.099946 -0.050000
v -1.897401 -0.097306 -0.050000
v -1.900040 -0.896980 -0.050000
v -0.102754 -0.896980 -0.050000
vn -1.0000 -0.0000 -0.0000
vn -0.0000 -0.0000 -1.0000
vn 1.0000 -0.0000 -0.0000
vn -0.0000 -0.0000 1.0000
vn -0.0000 -1.0000 -0.0000
vn -0.0000 1.0000 -0.0000
vt 0.375000 0.000000
vt 0.625000 0.000000
vt 0.625000 0.250000
vt 0.375000 0.250000
vt 0.387877 0.262495
vt 0.387877 0.487156
vt 0.375000 0.500000
vt 0.625000 0.500000
vt 0.625000 0.750000
vt 0.375000 0.750000
vt 0.387877 0.762844
vt 0.387877 0.987505
vt 0.375000 1.000000
vt 0.125000 0.500000
vt 0.125000 0.750000
vt 0.875000 0.500000
vt 0.875000 0.750000
vt 0.625000 1.000000
vt 0.612538 0.987505
vt 0.612868 0.763174
vt 0.612868 0.486826
vt 0.612538 0.262495
vt 0.487837 0.987175
vt 0.487507 0.763504
vt 0.511919 0.763504
vt 0.512909 0.986845
vt 0.487507 0.486496
vt 0.487837 0.262825
vt 0.512909 0.263155
vt 0.511919 0.486496
s 0
usemtl Material.002
f 97/83/19 98/84/19 100/85/19 99/86/19
f 99/86/20 119/87/20 120/88/20 103/89/20
f 103/89/21 104/90/21 102/91/21 101/92/21
f 101/92/22 116/93/22 115/94/22 97/95/22
f 99/96/23 103/89/23 101/92/23 97/97/23
f 104/90/24 100/98/24 98/99/24 102/91/24
f 98/100/22 106/101/22 105/102/22 102/91/22
f 104/90/20 109/103/20 110/104/20 100/85/20
f 97/95/22 115/94/22 114/105/22 113/106/22 116/93/22 101/92/22 102/91/22 105/102/22 108/107/22 107/108/22 106/101/22 98/100/22
f 103/89/20 120/88/20 117/109/20 118/110/20 119/87/20 99/86/20 100/85/20 110/104/20 111/111/20 112/112/20 109/103/20 104/90/20
usemtl Material.004
f 124/107/22 121/102/22 122/101/22 123/108/22
f 128/112/20 127/111/20 126/104/20 125/103/20
f 129/106/22 130/105/22 131/94/22 132/93/22
f 133/109/20 136/88/20 135/87/20 134/110/20
o Cube.003
v 0.000000 -1.000000 0.050000
v 0.000000 1.000000 0.050000
v 0.000000 -1.000000 -0.050000
v 0.000000 1.000000 -0.050000
v 2.000000 -1.000000 0.050000
v 2.000000 1.000000 0.050000
v 2.000000 -1.000000 -0.050000
v 2.000000 1.000000 -0.050000
v 1.894607 0.902945 0.050000
v 0.099960 0.900306 0.050000
v 0.105238 0.103272 0.050000
v 1.891968 0.095354 0.050000
v 1.894607 0.902945 -0.050000
v 0.099960 0.900306 -0.050000
v 0.105238 0.103272 -0.050000
v 1.891968 0.095354 -0.050000
v 1.891968 -0.099946 0.050000
v 0.102599 -0.097307 0.050000
v 0.099960 -0.896980 0.050000
v 1.897246 -0.896980 0.050000
v 1.891967 -0.099946 -0.050000
v 0.102599 -0.097306 -0.050000
v 0.099960 -0.896980 -0.050000
v 1.897246 -0.896980 -0.050000
v 1.894607 0.902945 0.050000
v 0.099960 0.900306 0.050000
v 0.105238 0.103272 0.050000
v 1.891968 0.095354 0.050000
v 1.894607 0.902945 -0.050000
v 0.099960 0.900306 -0.050000
v 0.105238 0.103272 -0.050000
v 1.891968 0.095354 -0.050000
v 1.891968 -0.099946 0.050000
v 0.102599 -0.097307 0.050000
v 0.099960 -0.896980 0.050000
v 1.897246 -0.896980 0.050000
v 1.891967 -0.099946 -0.050000
v 0.102599 -0.097306 -0.050000
v 0.099960 -0.896980 -0.050000
v 1.897246 -0.896980 -0.050000
vn -1.0000 -0.0000 -0.0000
vn -0.0000 -0.0000 -1.0000
vn 1.0000 -0.0000 -0.0000
vn -0.0000 -0.0000 1.0000
vn -0.0000 -1.0000 -0.0000
vn -0.0000 1.0000 -0.0000
vt 0.375000 0.000000
vt 0.625000 0.000000
vt 0.625000 0.250000
vt 0.375000 0.250000
vt 0.387877 0.262495
vt 0.387877 0.487156
vt 0.375000 0.500000
vt 0.625000 0.500000
vt 0.625000 0.750000
vt 0.375000 0.750000
vt 0.387877 0.762844
vt 0.387877 0.987505
vt 0.375000 1.000000
vt 0.125000 0.500000
vt 0.125000 0.750000
vt 0.875000 0.500000
vt 0.875000 0.750000
vt 0.625000 1.000000
vt 0.612538 0.987505
vt 0.612868 0.763174
vt 0.612868 0.486826
vt 0.612538 0.262495
vt 0.487837 0.987175
vt 0.487507 0.763504
vt 0.511919 0.763504
vt 0.512909 0.986845
vt 0.487507 0.486496
vt 0.487837 0.262825
vt 0.512909 0.263155
vt 0.511919 0.486496
s 0
usemtl Material.002
f 137/113/25 138/114/25 140/115/25 139/116/25
f 139/116/26 159/117/26 160/118/26 143/119/26
f 143/119/27 144/120/27 142/121/27 141/122/27
f 141/122/28 156/123/28 155/124/28 137/125/28
f 139/126/29 143/119/29 141/122/29 137/127/29
f 144/120/30 140/128/30 138/129/30 142/121/30
f 138/130/28 146/131/28 145/132/28 142/121/28
f 144/120/26 149/133/26 150/134/26 140/115/26
f 137/125/28 155/124/28 154/135/28 153/136/28 156/123/28 141/122/28 142/121/28 145/132/28 148/137/28 147/138/28 146/131/28 138/130/28
f 143/119/26 160/118/26 157/139/26 158/140/26 159/117/26 139/116/26 140/115/26 150/134/26 151/141/26 152/142/26 149/133/26 144/120/26
usemtl Material.004
f 164/137/28 161/132/28 162/131/28 163/138/28
f 168/142/26 167/141/26 166/134/26 165/133/26
f 169/136/28 170/135/28 171/124/28 172/123/28
f 173/139/26 176/118/26 175/117/26 174/140/26
o Cube.006
v 2.000000 -1.000000 0.050000
v 2.000000 1.000000 0.050000
v 2.000000 -1.000000 -0.050000
v 2.000000 1.000000 -0.050000
v 4.000000 -1.000000 0.050000
v 4.000000 1.000000 0.050000
v 4.000000 -1.000000 -0.050000
v 4.000000 1.000000 -0.050000
v 3.894501 0.892388 -0.050000
v 2.091938 0.895028 -0.050000
v 2.094577 -0.891702 -0.050000
v 3.891862 -0.912815 -0.050000
v 3.894501 0.892388 0.050000
v 2.091938 0.895028 0.050000
v 2.094577 -0.891702 0.050000
v 3.891862 -0.912815 0.050000
vn -1.0000 -0.0000 -0.0000
vn -0.0000 -0.0000 -1.0000
vn 1.0000 -0.0000 -0.0000
vn -0.0000 -0.0000 1.0000
vn -0.0000 -1.0000 -0.0000
vn -0.0000 1.0000 -0.0000
vt 0.375000 0.000000
vt 0.625000 0.000000
vt 0.625000 0.250000
vt 0.375000 0.250000
vt 0.611878 0.261492
vt 0.388537 0.261822
vt 0.385898 0.486483
vt 0.611549 0.486813
vt 0.625000 0.500000
vt 0.375000 0.500000
vt 0.625000 0.750000
vt 0.375000 0.750000
vt 0.611548 0.763187
vt 0.385898 0.763517
vt 0.388537 0.988178
vt 0.611879 0.988508
vt 0.625000 1.000000
vt 0.375000 1.000000
vt 0.125000 0.500000
vt 0.125000 0.750000
vt 0.875000 0.500000
vt 0.875000 0.750000
s 0
usemtl Material.002
f 177/143/31 178/144/31 180/145/31 179/146/31
f 179/146/32 180/145/32 186/147/32 187/148/32 188/149/32 185/150/32 184/151/32 183/152/32
f 183/152/33 184/151/33 182/153/33 181/154/33
f 181/154/34 182/153/34 189/155/34 192/156/34 191/157/34 190/158/34 178/159/34 177/160/34
f 179/161/35 183/152/35 181/154/35 177/162/35
f 184/151/36 180/163/36 178/164/36 182/153/36
f 184/151/32 185/150/32 186/147/32 180/145/32
f 178/159/34 190/158/34 189/155/34 182/153/34
usemtl Material.004
f 188/149/32 187/148/32 186/147/32 185/150/32
f 192/156/34 189/155/34 190/158/34 191/157/34
