# Blender 4.5.4 LTS
# www.blender.org
mtllib janela.mtl
o Cube.004
v -6.000000 -1.000000 0.050000
v -6.000000 1.000000 0.050000
v -6.000000 -1.000000 -0.050000
v -6.000000 1.000000 -0.050000
v -4.000000 -1.000000 0.050000
v -4.000000 1.000000 0.050000
v -4.000000 -1.000000 -0.050000
v -4.000000 1.000000 -0.050000
v -4.105393 0.902945 0.050000
v -5.900040 0.900306 0.050000
v -5.894762 0.103272 0.050000
v -4.108032 0.095354 0.050000
v -4.105393 0.902945 -0.050000
v -5.900040 0.900306 -0.050000
v -5.894762 0.103272 -0.050000
v -4.108032 0.095354 -0.050000
v -4.108032 -0.099946 0.050000
v -5.897401 -0.097307 0.050000
v -5.900040 -0.896980 0.050000
v -4.102754 -0.896980 0.050000
v -4.108033 -0.099946 -0.050000
v -5.897401 -0.097306 -0.050000
v -5.900040 -0.896980 -0.050000
v -4.102754 -0.896980 -0.050000
v -4.105393 0.902945 0.050000
v -5.900040 0.900306 0.050000
v -5.894762 0.103272 0.050000
v -4.108032 0.095354 0.050000
v -4.105393 0.902945 -0.050000
v -5.900040 0.900306 -0.050000
v -5.894762 0.103272 -0.050000
v -4.108032 0.095354 -0.050000
v -4.108032 -0.099946 0.050000
v -5.897401 -0.097307 0.050000
v -5.900040 -0.896980 0.050000
v -4.102754 -0.896980 0.050000
v -4.108033 -0.099946 -0.050000
v -5.897401 -0.097306 -0.050000
v -5.900040 -0.896980 -0.050000
v -4.102754 -0.896980 -0.050000
vn -1.0000 -0.0000 -0.0000
vn -0.0000 -0.0000 -1.0000
vn 1.0000 -0.0000 -0.0000
vn -0.0000 -0.0000 1.0000
vn -0.0000 -1.0000 -0.0000
vn -0.0000 1.0000 -0.0000
vt 0.625000 0.000000
vt 0.375000 0.250000
vt 0.375000 0.000000
vt 0.387877 0.487156
vt 0.375000 0.500000
vt 0.625000 0.500000
vt 0.375000 0.750000
vt 0.387877 0.762844
vt 0.375000 1.000000
vt 0.125000 0.750000
vt 0.125000 0.500000
vt 0.875000 0.500000
vt 0.625000 0.750000
vt 0.625000 1.000000
vt 0.612868 0.763174
vt 0.612868 0.486826
vt 0.625000 0.250000
vt 0.487507 0.763504
vt 0.511919 0.763504
vt 0.487837 0.262825
vt 0.512909 0.263155
vt 0.512909 0.986845
vt 0.511919 0.486496
vt 0.387877 0.987505
vt 0.487507 0.486496
vt 0.387877 0.262495
vt 0.875000 0.750000
vt 0.612538 0.987505
vt 0.612538 0.262495
vt 0.487837 0.987175
s 0
usemtl Material.002
f 2/1/1 3/2/1 1/3/1
f 3/2/2 24/4/2 7/5/2
f 8/6/3 5/7/3 7/5/3
f 20/8/4 1/9/4 5/7/4
f 7/5/5 1/10/5 3/11/5
f 4/12/6 6/13/6 8/6/6
f 2/14/4 9/15/4 6/13/4
f 13/16/2 4/17/2 8/6/2
f 17/18/4 5/7/4 12/19/4
f 22/20/2 3/2/2 15/21/2
f 2/1/1 4/17/1 3/2/1
f 3/2/2 23/26/2 24/4/2
f 8/6/3 6/13/3 5/7/3
f 20/8/4 19/24/4 1/9/4
f 7/5/5 5/7/5 1/10/5
f 4/12/6 2/27/6 6/13/6
f 2/14/4 10/28/4 9/15/4
f 13/16/2 14/29/2 4/17/2
f 2/14/4 1/9/4 19/24/4
f 2/14/4 19/24/4 18/30/4
f 11/22/4 10/28/4 2/14/4
f 6/13/4 9/15/4 12/19/4
f 11/22/4 2/14/4 18/30/4
f 5/7/4 6/13/4 12/19/4
f 12/19/4 11/22/4 18/30/4
f 17/18/4 20/8/4 5/7/4
f 12/19/4 18/30/4 17/18/4
f 8/6/2 7/5/2 24/4/2
f 8/6/2 24/4/2 21/25/2
f 16/23/2 13/16/2 8/6/2
f 4/17/2 14/29/2 15/21/2
f 16/23/2 8/6/2 21/25/2
f 3/2/2 4/17/2 15/21/2
f 15/21/2 16/23/2 21/25/2
f 22/20/2 23/26/2 3/2/2
f 15/21/2 21/25/2 22/20/2
usemtl Material.004
f 25/15/4 27/22/4 28/19/4
f 31/21/2 29/16/2 32/23/2
f 33/18/4 35/24/4 36/8/4
f 37/25/2 39/26/2 38/20/2
f 25/15/4 26/28/4 27/22/4
f 31/21/2 30/29/2 29/16/2
f 33/18/4 34/30/4 35/24/4
f 37/25/2 40/4/2 39/26/2
o Cube.005
v -8.000000 -1.000000 0.050000
v -8.000000 1.000000 0.050000
v -8.000000 -1.000000 -0.050000
v -8.000000 1.000000 -0.050000
v -6.000000 -1.000000 0.050000
v -6.000000 1.000000 0.050000
v -6.000000 -1.000000 -0.050000
v -6.000000 1.000000 -0.050000
v -6.105498 0.892388 -0.050000
v -7.908062 0.895028 -0.050000
v -7.905423 -0.891702 -0.050000
v -6.108138 -0.912815 -0.050000
v -6.105499 0.892388 0.050000
v -7.908062 0.895028 0.050000
v -7.905423 -0.891702 0.050000
v -6.108138 -0.912815 0.050000
vn -1.0000 -0.0000 -0.0000
vn -0.0000 -0.0000 -1.0000
vn 1.0000 -0.0000 -0.0000
vn -0.0000 -0.0000 1.0000
vn -0.0000 -1.0000 -0.0000
vn -0.0000 1.0000 -0.0000
vt 0.625000 0.000000
vt 0.375000 0.250000
vt 0.375000 0.000000
vt 0.385898 0.486483
vt 0.375000 0.500000
vt 0.625000 0.500000
vt 0.375000 0.750000
vt 0.388537 0.988178
vt 0.375000 1.000000
vt 0.125000 0.750000
vt 0.125000 0.500000
vt 0.875000 0.500000
vt 0.625000 0.750000
vt 0.611549 0.486813
vt 0.625000 0.250000
vt 0.625000 1.000000
vt 0.611548 0.763187
vt 0.388537 0.261822
vt 0.385898 0.763517
vt 0.611878 0.261492
vt 0.611879 0.988508
vt 0.875000 0.750000
s 0
usemtl Material.002
f 42/31/7 43/32/7 41/33/7
f 43/32/8 52/34/8 47/35/8
f 48/36/9 45/37/9 47/35/9
f 45/37/10 55/38/10 41/39/10
f 47/35/11 41/40/11 43/41/11
f 44/42/12 46/43/12 48/36/12
f 49/44/8 44/45/8 48/36/8
f 42/46/10 53/47/10 46/43/10
f 42/31/7 44/45/7 43/32/7
f 43/32/8 44/45/8 50/50/8
f 43/32/8 50/50/8 51/48/8
f 49/44/8 48/36/8 47/35/8
f 43/32/8 51/48/8 52/34/8
f 52/34/8 49/44/8 47/35/8
f 48/36/9 46/43/9 45/37/9
f 45/37/10 46/43/10 53/47/10
f 45/37/10 53/47/10 56/49/10
f 54/51/10 42/46/10 41/39/10
f 45/37/10 56/49/10 55/38/10
f 55/38/10 54/51/10 41/39/10
f 47/35/11 45/37/11 41/40/11
f 44/42/12 42/52/12 46/43/12
f 49/44/8 50/50/8 44/45/8
f 42/46/10 54/51/10 53/47/10
usemtl Material.004
f 51/48/8 49/44/8 52/34/8
f 53/47/10 55/38/10 56/49/10
f 51/48/8 50/50/8 49/44/8
f 53/47/10 54/51/10 55/38/10
o Cube.001
v -4.000000 -1.000000 0.050000
v -4.000000 1.000000 0.050000
v -4.000000 -1.000000 -0.050000
v -4.000000 1.000000 -0.050000
v -2.000000 -1.000000 0.050000
v -2.000000 1.000000 0.050000
v -2.000000 -1.000000 -0.050000
v -2.000000 1.000000 -0.050000
v -2.105393 0.902945 0.050000
v -3.900040 0.900306 0.050000
v -3.894762 0.103272 0.050000
v -2.108032 0.095354 0.050000
v -2.105393 0.902945 -0.050000
v -3.900040 0.900306 -0.050000
v -3.894762 0.103272 -0.050000
v -2.108032 0.095354 -0.050000
v -2.108032 -0.099946 0.050000
v -3.897401 -0.097307 0.050000
v -3.900040 -0.896980 0.050000
v -2.102754 -0.896980 0.050000
v -2.108033 -0.099946 -0.050000
v -3.897401 -0.097306 -0.050000
v -3.900040 -0.896980 -0.050000
v -2.102754 -0.896980 -0.050000
v -2.105393 0.902945 0.050000
v -3.900040 0.900306 0.050000
v -3.894762 0.103272 0.050000
v -2.108032 0.095354 0.050000
v -2.105393 0.902945 -0.050000
v -3.900040 0.900306 -0.050000
v -3.894762 0.103272 -0.050000
v -2.108032 0.095354 -0.050000
v -2.108032 -0.099946 0.050000
v -3.897401 -0.097307 0.050000
v -3.900040 -0.896980 0.050000
v -2.102754 -0.896980 0.050000
v -2.108033 -0.099946 -0.050000
v -3.897401 -0.097306 -0.050000
v -3.900040 -0.896980 -0.050000
v -2.102754 -0.896980 -0.050000
vn -1.0000 -0.0000 -0.0000
vn -0.0000 -0.0000 -1.0000
vn 1.0000 -0.0000 -0.0000
vn -0.0000 -0.0000 1.0000
vn -0.0000 -1.0000 -0.0000
vn -0.0000 1.0000 -0.0000
vt 0.625000 0.000000
vt 0.375000 0.250000
vt 0.375000 0.000000
vt 0.387877 0.487156
vt 0.375000 0.500000
vt 0.625000 0.500000
vt 0.375000 0.750000
vt 0.387877 0.762844
vt 0.375000 1.000000
vt 0.125000 0.750000
vt 0.125000 0.500000
vt 0.875000 0.500000
vt 0.625000 0.750000
vt 0.625000 1.000000
vt 0.612868 0.763174
vt 0.612868 0.486826
vt 0.625000 0.250000
vt 0.487507 0.763504
vt 0.511919 0.763504
vt 0.487837 0.262825
vt 0.512909 0.263155
vt 0.512909 0.986845
vt 0.511919 0.486496
vt 0.387877 0.987505
vt 0.487507 0.486496
vt 0.387877 0.262495
vt 0.875000 0.750000
vt 0.612538 0.987505
vt 0.612538 0.262495
vt 0.487837 0.987175
s 0
usemtl Material.002
f 58/53/13 59/54/13 57/55/13
f 59/54/14 80/56/14 63/57/14
f 64/58/15 61/59/15 63/57/15
f 76/60/16 57/61/16 61/59/16
f 63/57/17 57/62/17 59/63/17
f 60/64/18 62/65/18 64/58/18
f 58/66/16 65/67/16 62/65/16
f 69/68/14 60/69/14 64/58/14
f 73/70/16 61/59/16 68/71/16
f 78/72/14 59/54/14 71/73/14
f 58/53/13 60/69/13 59/54/13
f 59/54/14 79/78/14 80/56/14
f 64/58/15 62/65/15 61/59/15
f 76/60/16 75/76/16 57/61/16
f 63/57/17 61/59/17 57/62/17
f 60/64/18 58/79/18 62/65/18
f 58/66/16 66/80/16 65/67/16
f 69/68/14 70/81/14 60/69/14
f 58/66/16 57/61/16 75/76/16
f 58/66/16 75/76/16 74/82/16
f 67/74/16 66/80/16 58/66/16
f 62/65/16 65/67/16 68/71/16
f 67/74/16 58/66/16 74/82/16
f 61/59/16 62/65/16 68/71/16
f 68/71/16 67/74/16 74/82/16
f 73/70/16 76/60/16 61/59/16
f 68/71/16 74/82/16 73/70/16
f 64/58/14 63/57/14 80/56/14
f 64/58/14 80/56/14 77/77/14
f 72/75/14 69/68/14 64/58/14
f 60/69/14 70/81/14 71/73/14
f 72/75/14 64/58/14 77/77/14
f 59/54/14 60/69/14 71/73/14
f 71/73/14 72/75/14 77/77/14
f 78/72/14 79/78/14 59/54/14
f 71/73/14 77/77/14 78/72/14
usemtl Material.004
f 81/67/16 83/74/16 84/71/16
f 87/73/14 85/68/14 88/75/14
f 89/70/16 91/76/16 92/60/16
f 93/77/14 95/78/14 94/72/14
f 81/67/16 82/80/16 83/74/16
f 87/73/14 86/81/14 85/68/14
f 89/70/16 90/82/16 91/76/16
f 93/77/14 96/56/14 95/78/14
o Cube.002
v -2.000000 -1.000000 0.050000
v -2.000000 1.000000 0.050000
v -2.000000 -1.000000 -0.050000
v -2.000000 1.000000 -0.050000
v 0.000000 -1.000000 0.050000
v 0.000000 1.000000 0.050000
v 0.000000 -1.000000 -0.050000
v 0.000000 1.000000 -0.050000
v -0.105393 0.902945 0.050000
v -1.900040 0.900306 0.050000
v -1.894762 0.103272 0.050000
v -0.108032 0.095354 0.050000
v -0.105393 0.902945 -0.050000
v -1.900040 0.900306 -0.050000
v -1.894762 0.103272 -0.050000
v -0.108032 0.095354 -0.050000
v -0.108032 -0.099946 0.050000
v -1.897401 -0.097307 0.050000
v -1.900040 -0.896980 0.050000
v -0.102754 -0.896980 0.050000
v -0.108033 -0.099946 -0.050000
v -1.897401 -0.097306 -0.050000
v -1.900040 -0.896980 -0.050000
v -0.102754 -0.896980 -0.050000
v -0.105393 0.902945 0.050000
v -1.900040 0.900306 0.050000
v -1.894762 0.103272 0.050000
v -0.108032 0.095354 0.050000
v -0.105393 0.902945 -0.050000
v -1.900040 0.900306 -0.050000
v -1.894762 0.103272 -0.050000
v -0.108032 0.095354 -0.050000
v -0.108032 -0.099946 0.050000
v -1.897401 -0.097307 0.050000
v -1.900040 -0.896980 0.050000
v -0.102754 -0.896980 0.050000
v -0.108033 -0.099946 -0.050000
v -1.897401 -0.097306 -0.050000
v -1.900040 -0.896980 -0.050000
v -0.102754 -0.896980 -0.050000
vn -1.0000 -0.0000 -0.0000
vn -0.0000 -0.0000 -1.0000
vn 1.0000 -0.0000 -0.0000
vn -0.0000 -0.0000 1.0000
vn -0.0000 -1.0000 -0.0000
vn -0.0000 1.0000 -0.0000
vt 0.625000 0.000000
vt 0.375000 0.250000
vt 0.375000 0.000000
vt 0.387877 0.487156
vt 0.375000 0.500000
vt 0.625000 0.500000
vt 0.375000 0.750000
vt 0.387877 0.762844
vt 0.375000 1.000000
vt 0.125000 0.750000
vt 0.125000 0.500000
vt 0.875000 0.500000
vt 0.625000 0.750000
vt 0.625000 1.000000
vt 0.612868 0.763174
vt 0.612868 0.486826
vt 0.625000 0.250000
vt 0.487507 0.763504
vt 0.511919 0.763504
vt 0.487837 0.262825
vt 0.512909 0.263155
vt 0.512909 0.986845
vt 0.511919 0.486496
vt 0.387877 0.987505
vt 0.487507 0.486496
vt 0.387877 0.262495
vt 0.875000 0.750000
vt 0.612538 0.987505
vt 0.612538 0.262495
vt 0.487837 0.987175
s 0
usemtl Material.002
f 98/83/19 99/84/19 97/85/19
f 99/84/20 120/86/20 103/87/20
f 104/88/21 101/89/21 103/87/21
f 116/90/22 97/91/22 101/89/22
f 103/87/23 97/92/23 99/93/23
f 100/94/24 102/95/24 104/88/24
f 98/96/22 105/97/22 102/95/22
f 109/98/20 100/99/20 104/88/20
f 113/100/22 101/89/22 108/101/22
f 118/102/20 99/84/20 111/103/20
f 98/83/19 100/99/19 99/84/19
f 99/84/20 119/108/20 120/86/20
f 104/88/21 102/95/21 101/89/21
f 116/90/22 115/106/22 97/91/22
f 103/87/23 101/89/23 97/92/23
f 100/94/24 98/109/24 102/95/24
f 98/96/22 106/110/22 105/97/22
f 109/98/20 110/111/20 100/99/20
f 98/96/22 97/91/22 115/106/22
f 98/96/22 115/106/22 114/112/22
f 107/104/22 106/110/22 98/96/22
f 102/95/22 105/97/22 108/101/22
f 107/104/22 98/96/22 114/112/22
f 101/89/22 102/95/22 108/101/22
f 108/101/22 107/104/22 114/112/22
f 113/100/22 116/90/22 101/89/22
f 108/101/22 114/112/22 113/100/22
f 104/88/20 103/87/20 120/86/20
f 104/88/20 120/86/20 117/107/20
f 112/105/20 109/98/20 104/88/20
f 100/99/20 110/111/20 111/103/20
f 112/105/20 104/88/20 117/107/20
f 99/84/20 100/99/20 111/103/20
f 111/103/20 112/105/20 117/107/20
f 118/102/20 119/108/20 99/84/20
f 111/103/20 117/107/20 118/102/20
usemtl Material.004
f 121/97/22 123/104/22 124/101/22
f 127/103/20 125/98/20 128/105/20
f 129/100/22 131/106/22 132/90/22
f 133/107/20 135/108/20 134/102/20
f 121/97/22 122/110/22 123/104/22
f 127/103/20 126/111/20 125/98/20
f 129/100/22 130/112/22 131/106/22
f 133/107/20 136/86/20 135/108/20
o Cube.003
v -0.000000 -1.000000 0.050000
v -0.000000 1.000000 0.050000
v -0.000000 -1.000000 -0.050000
v -0.000000 1.000000 -0.050000
v 2.000000 -1.000000 0.050000
v 2.000000 1.000000 0.050000
v 2.000000 -1.000000 -0.050000
v 2.000000 1.000000 -0.050000
v 1.894607 0.902945 0.050000
v 0.099960 0.900306 0.050000
v 0.105238 0.103272 0.050000
v 1.891968 0.095354 0.050000
v 1.894607 0.902945 -0.050000
v 0.099960 0.900306 -0.050000
v 0.105238 0.103272 -0.050000
v 1.891968 0.095354 -0.050000
v 1.891968 -0.099946 0.050000
v 0.102599 -0.097307 0.050000
v 0.099960 -0.896980 0.050000
v 1.897246 -0.896980 0.050000
v 1.891967 -0.099946 -0.050000
v 0.102599 -0.097306 -0.050000
v 0.099960 -0.896980 -0.050000
v 1.897246 -0.896980 -0.050000
v 1.894607 0.902945 0.050000
v 0.099960 0.900306 0.050000
v 0.105238 0.103272 0.050000
v 1.891968 0.095354 0.050000
v 1.894607 0.902945 -0.050000
v 0.099960 0.900306 -0.050000
v 0.105238 0.103272 -0.050000
v 1.891968 0.095354 -0.050000
v 1.891968 -0.099946 0.050000
v 0.102599 -0.097307 0.050000
v 0.099960 -0.896980 0.050000
v 1.897246 -0.896980 0.050000
v 1.891967 -0.099946 -0.050000
v 0.102599 -0.097306 -0.050000
v 0.099960 -0.896980 -0.050000
v 1.897246 -0.896980 -0.050000
vn -1.0000 -0.0000 -0.0000
vn -0.0000 -0.0000 -1.0000
vn 1.0000 -0.0000 -0.0000
vn -0.0000 -0.0000 1.0000
vn -0.0000 -1.0000 -0.0000
vn -0.0000 1.0000 -0.0000
vt 0.625000 0.000000
vt 0.375000 0.250000
vt 0.375000 0.000000
vt 0.387877 0.487156
vt 0.375000 0.500000
vt 0.625000 0.500000
vt 0.375000 0.750000
vt 0.387877 0.762844
vt 0.375000 1.000000
vt 0.125000 0.750000
vt 0.125000 0.500000
vt 0.875000 0.500000
vt 0.625000 0.750000
vt 0.625000 1.000000
vt 0.612868 0.763174
vt 0.612868 0.486826
vt 0.625000 0.250000
vt 0.487507 0.763504
vt 0.511919 0.763504
vt 0.487837 0.262825
vt 0.512909 0.263155
vt 0.512909 0.986845
vt 0.511919 0.486496
vt 0.387877 0.987505
vt 0.487507 0.486496
vt 0.387877 0.262495
vt 0.875000 0.750000
vt 0.612538 0.987505
vt 0.612538 0.262495
vt 0.487837 0.987175
s 0
usemtl Material.002
f 138/113/25 139/114/25 137/115/25
f 139/114/26 160/116/26 143/117/26
f 144/118/27 141/119/27 143/117/27
f 156/120/28 137/121/28 141/119/28
f 143/117/29 137/122/29 139/123/29
f 140/124/30 142/125/30 144/118/30
f 138/126/28 145/127/28 142/125/28
f 149/128/26 140/129/26 144/118/26
f 153/130/28 141/119/28 148/131/28
f 158/132/26 139/114/26 151/133/26
f 138/113/25 140/129/25 139/114/25
f 139/114/26 159/138/26 160/116/26
f 144/118/27 142/125/27 141/119/27
f 156/120/28 155/136/28 137/121/28
f 143/117/29 141/119/29 137/122/29
f 140/124/30 138/139/30 142/125/30
f 138/126/28 146/140/28 145/127/28
f 149/128/26 150/141/26 140/129/26
f 138/126/28 137/121/28 155/136/28
f 138/126/28 155/136/28 154/142/28
f 147/134/28 146/140/28 138/126/28
f 142/125/28 145/127/28 148/131/28
f 147/134/28 138/126/28 154/142/28
f 141/119/28 142/125/28 148/131/28
f 148/131/28 147/134/28 154/142/28
f 153/130/28 156/120/28 141/119/28
f 148/131/28 154/142/28 153/130/28
f 144/118/26 143/117/26 160/116/26
f 144/118/26 160/116/26 157/137/26
f 152/135/26 149/128/26 144/118/26
f 140/129/26 150/141/26 151/133/26
f 152/135/26 144/118/26 157/137/26
f 139/114/26 140/129/26 151/133/26
f 151/133/26 152/135/26 157/137/26
f 158/132/26 159/138/26 139/114/26
f 151/133/26 157/137/26 158/132/26
usemtl Material.004
f 161/127/28 163/134/28 164/131/28
f 167/133/26 165/128/26 168/135/26
f 169/130/28 171/136/28 172/120/28
f 173/137/26 175/138/26 174/132/26
f 161/127/28 162/140/28 163/134/28
f 167/133/26 166/141/26 165/128/26
f 169/130/28 170/142/28 171/136/28
f 173/137/26 176/116/26 175/138/26
o Cube.006
v 2.000000 -1.000000 0.050000
v 2.000000 1.000000 0.050000
v 2.000000 -1.000000 -0.050000
v 2.000000 1.000000 -0.050000
v 4.000000 -1.000000 0.050000
v 4.000000 1.000000 0.050000
v 4.000000 -1.000000 -0.050000
v 4.000000 1.000000 -0.050000
v 3.894501 0.892388 -0.050000
v 2.091938 0.895028 -0.050000
v 2.094577 -0.891702 -0.050000
v 3.891862 -0.912815 -0.050000
v 3.894501 0.892388 0.050000
v 2.091938 0.895028 0.050000
v 2.094577 -0.891702 0.050000
v 3.891862 -0.912815 0.050000
vn -1.0000 -0.0000 -0.0000
vn -0.0000 -0.0000 -1.0000
vn 1.0000 -0.0000 -0.0000
vn -0.0000 -0.0000 1.0000
vn -0.0000 -1.0000 -0.0000
vn -0.0000 1.0000 -0.0000
vt 0.625000 0.000000
vt 0.375000 0.250000
vt 0.375000 0.000000
vt 0.385898 0.486483
vt 0.375000 0.500000
vt 0.625000 0.500000
vt 0.375000 0.750000
vt 0.388537 0.988178
vt 0.375000 1.000000
vt 0.125000 0.750000
vt 0.125000 0.500000
vt 0.875000 0.500000
vt 0.625000 0.750000
vt 0.611549 0.486813
vt 0.625000 0.250000
vt 0.625000 1.000000
vt 0.611548 0.763187
vt 0.388537 0.261822
vt 0.385898 0.763517
vt 0.611878 0.261492
vt 0.611879 0.988508
vt 0.875000 0.750000
s 0
usemtl Material.002
f 178/143/31 179/144/31 177/145/31
f 179/144/32 188/146/32 183/147/32
f 184/148/33 181/149/33 183/147/33
f 181/149/34 191/150/34 177/151/34
f 183/147/35 177/152/35 179/153/35
f 180/154/36 182/155/36 184/148/36
f 185/156/32 180/157/32 184/148/32
f 178/158/34 189/159/34 182/155/34
f 178/143/31 180/157/31 179/144/31
f 179/144/32 180/157/32 186/162/32
f 179/144/32 186/162/32 187/160/32
f 185/156/32 184/148/32 183/147/32
f 179/144/32 187/160/32 188/146/32
f 188/146/32 185/156/32 183/147/32
f 184/148/33 182/155/33 181/149/33
f 181/149/34 182/155/34 189/159/34
f 181/149/34 189/159/34 192/161/34
f 190/163/34 178/158/34 177/151/34
f 181/149/34 192/161/34 191/150/34
f 191/150/34 190/163/34 177/151/34
f 183/147/35 181/149/35 177/152/35
f 180/154/36 178/164/36 182/155/36
f 185/156/32 186/162/32 180/157/32
f 178/158/34 190/163/34 189/159/34
usemtl Material.004
f 187/160/32 185/156/32 188/146/32
f 189/159/34 191/150/34 192/161/34
f 187/160/32 186/162/32 185/156/32
f 189/159/34 190/163/34 191/150/34
