# Blender 4.5.4 LTS
# www.blender.org
mtllib locker_teste.mtl
o Cube
v 0.960659 0.816702 -0.816702
v 0.960659 -0.816702 -0.816702
v 0.960659 0.816702 0.816702
v 0.960659 -0.816702 0.816702
v -1.000000 1.000000 -1.000000
v -1.000000 -1.000000 -1.000000
v -1.000000 1.000000 1.000000
v -1.000000 -1.000000 1.000000
v 1.000000 1.000000 -1.000000
v 1.000000 -1.000000 -1.000000
v 1.000000 1.000000 1.000000
v 1.000000 -1.000000 1.000000
v 1.000000 1.000000 -1.000000
v 1.000000 -1.000000 -1.000000
v 1.000000 1.000000 1.000000
v 1.000000 -1.000000 1.000000
v 1.000000 0.853283 -0.853283
v 1.000000 -0.853283 -0.853283
v 1.000000 0.853283 0.853283
v 1.000000 -0.853283 0.853283
v 0.960659 0.000000 -0.816702
v 0.960659 0.000000 0.816702
v 0.960659 0.816702 0.000000
v 0.960659 -0.816702 0.000000
v 0.960659 -0.408351 -0.816702
v 0.960659 -0.408351 0.816702
v 0.960659 0.816702 0.408351
v 0.960659 -0.816702 -0.408351
v 0.960659 0.408351 -0.816702
v 0.960659 0.408351 0.816702
v 0.960659 0.816702 -0.408351
v 0.960659 -0.816702 0.408351
v 0.994335 -0.063670 -0.612432
v 0.994335 -0.039615 -0.532291
v 0.994335 0.038228 -0.532291
v 0.994335 0.062283 -0.612432
v 0.994335 -0.000693 -0.661962
v 1.033956 -0.000693 -0.590282
v 0.962281 -0.023571 -0.666501
v 0.962281 0.022184 -0.666501
v 0.962281 -0.074727 -0.590282
v 0.962281 -0.060588 -0.637388
v 0.962281 -0.023571 -0.514063
v 0.962281 -0.060588 -0.543176
v 0.962281 0.059201 -0.543176
v 0.962281 0.022184 -0.514063
v 0.962281 0.059201 -0.637388
v 0.962281 0.073340 -0.590282
v 0.999963 -0.037710 -0.645434
v 0.999963 -0.060587 -0.569215
v 0.999963 -0.000693 -0.522110
v 0.999963 0.059200 -0.569215
v 0.999963 0.036323 -0.645434
v 1.023252 -0.037710 -0.603301
v 1.023252 -0.000693 -0.632415
v 1.023252 -0.023571 -0.556196
v 1.023252 0.022184 -0.556196
v 1.023252 0.036323 -0.603301
v 0.960659 -0.408351 -0.816702
v 0.960659 -0.816702 -0.816702
v 0.960659 -0.408351 0.816702
v 0.960659 -0.816702 0.816702
v 0.960659 0.816702 0.408351
v 0.960659 0.816702 0.816702
v 0.960659 -0.816702 -0.408351
v 0.960659 0.408351 -0.816702
v 0.960659 0.000000 -0.816702
v 0.960659 0.408351 0.816702
v 0.960659 0.000000 0.816702
v 0.960659 0.816702 -0.408351
v 0.960659 0.816702 0.000000
v 0.960659 -0.816702 0.408351
v 0.960659 -0.816702 0.000000
v 0.960659 0.000000 0.408351
v 0.960659 0.000000 -0.408351
v 0.960659 0.000000 0.000000
v 0.960659 -0.408351 0.000000
v 0.960659 0.408351 0.000000
v 0.960659 0.816702 -0.816702
v 0.960659 0.408351 -0.408351
v 0.960659 -0.408351 -0.408351
v 0.960659 -0.408351 0.408351
v 0.960659 0.408351 0.408351
vn -0.0000 1.0000 -0.0000
vn -0.0000 -0.0000 1.0000
vn -1.0000 -0.0000 -0.0000
vn -0.0000 -1.0000 -0.0000
vn -0.0000 -0.0000 -1.0000
vn 1.0000 -0.0000 -0.0000
vn 0.6809 -0.0000 0.7323
vn 0.6809 -0.0000 -0.7323
vn 0.6809 -0.7323 -0.0000
vn 0.6809 0.7323 -0.0000
vn 0.6818 -0.6269 -0.3769
vn 0.6846 -0.5841 0.4361
vn 0.6985 0.2739 0.6611
vn 0.6737 0.7381 -0.0351
vn 0.7003 0.1995 -0.6854
vn 0.9515 0.1901 -0.2418
vn 0.8180 0.3556 -0.4521
vn 0.6818 0.6269 -0.3769
vn 0.9475 0.3063 0.0919
vn 0.8060 0.5669 0.1702
vn 0.6846 0.5841 0.4361
vn 0.9541 -0.0000 0.2996
vn 0.8257 -0.0000 0.5641
vn 0.6985 -0.2739 0.6611
vn 0.9475 -0.3063 0.0919
vn 0.8060 -0.5669 0.1702
vn 0.6737 -0.7381 -0.0351
vn 0.9515 -0.1901 -0.2418
vn 0.8180 -0.3556 -0.4521
vn 0.7003 -0.1995 -0.6854
vn 0.3615 0.3338 -0.8706
vn 0.2031 0.6053 -0.7696
vn 0.3485 0.7647 -0.5421
vn 0.3400 0.9401 0.0228
vn 0.1949 0.9394 0.2820
vn 0.3473 0.7917 0.5026
vn 0.3623 0.2846 0.8876
vn 0.2088 -0.0000 0.9779
vn 0.3623 -0.2846 0.8876
vn 0.3473 -0.7917 0.5026
vn 0.1949 -0.9394 0.2820
vn 0.3400 -0.9401 0.0228
vn 0.3485 -0.7647 -0.5421
vn 0.2031 -0.6053 -0.7696
vn 0.3615 -0.3338 -0.8706
vn 0.1306 0.9496 -0.2850
vn 0.1363 0.6124 0.7787
vn 0.1363 -0.6124 0.7787
vn 0.1306 -0.9496 -0.2850
vn 0.1402 -0.0000 -0.9901
vt 0.857144 0.285712
vt 1.000000 0.285712
vt 1.000000 0.428568
vt 0.857144 0.428568
vt 0.714288 0.428568
vt 0.857144 0.571424
vt 0.714288 0.571424
vt 0.714288 0.000000
vt 0.857144 0.000000
vt 0.857144 0.142856
vt 0.714288 0.142856
vt 0.571432 0.285712
vt 0.714288 0.285712
vt 0.571432 0.428568
vt 0.756548 0.298805
vt 0.785716 0.298805
vt 0.846664 0.296192
vt 0.724768 0.296192
vt 0.724768 0.418088
vt 0.846664 0.418088
vt 0.844051 0.298805
vt 0.814884 0.298805
vt 0.727381 0.298805
vt 0.727381 0.415475
vt 0.756548 0.415475
vt 0.785716 0.415475
vt 0.814884 0.415475
vt 0.844051 0.415475
vt 0.844051 0.386308
vt 0.844051 0.357140
vt 0.844051 0.327972
vt 0.727381 0.327972
vt 0.727381 0.357140
vt 0.727381 0.386308
vt 0.035326 0.622325
vt 0.061125 0.608054
vt 0.055919 0.637735
vt 0.034911 0.681819
vt 0.030132 0.652356
vt 0.055524 0.665708
vt 0.087848 0.698746
vt 0.059912 0.694873
vt 0.080406 0.673664
vt 0.122027 0.650048
vt 0.108834 0.677521
vt 0.096314 0.650651
vt 0.089181 0.603332
vt 0.109294 0.623456
vt 0.081131 0.628508
vt 0.073859 0.651252
vt 0.119525 0.585781
vt 0.147745 0.624940
vt 0.147753 0.674820
vt 0.118694 0.715614
vt 0.073048 0.731034
vt 0.028233 0.716705
vt 0.000000 0.677662
vt 0.000000 0.627577
vt 0.028946 0.586954
vt 0.074649 0.571432
vt 0.142858 0.428574
vt 0.142858 0.571432
vt 0.000000 0.571432
vt 0.000000 0.428574
vt 0.142858 0.142858
vt 0.142858 0.285716
vt 0.000000 0.285716
vt -0.000000 0.142858
vt 0.428574 0.142858
vt 0.428574 0.285716
vt 0.285716 0.285716
vt 0.285716 0.142858
vt 0.428574 0.428574
vt 0.428574 0.571432
vt 0.285716 0.571432
vt 0.285716 0.428574
vt 0.571432 0.285716
vt 0.571432 0.428574
vt 0.571432 0.571432
vt 0.428574 0.000000
vt 0.285716 0.000000
vt 0.571432 -0.000000
vt 0.571432 0.142858
vt 0.142858 0.000000
vt -0.000000 0.000000
s 0
usemtl Metal
f 13/1/1 5/2/1 7/3/1 15/4/1
f 16/5/2 15/4/2 7/6/2 8/7/2
f 8/8/3 7/9/3 5/10/3 6/11/3
f 6/12/4 14/13/4 16/5/4 8/14/4
f 25/15/1 21/16/1 67/16/1 59/15/1
f 6/11/5 5/10/5 13/1/5 14/13/5
f 17/17/6 18/18/6 14/13/6 13/1/6
f 20/19/6 19/20/6 15/4/6 16/5/6
f 19/20/6 17/17/6 13/1/6 15/4/6
f 18/18/6 20/19/6 16/5/6 14/13/6
f 1/21/7 29/22/7 21/16/7 25/15/7 2/23/7 18/18/7 17/17/7
f 4/24/8 26/25/8 22/26/8 30/27/8 3/28/8 19/20/8 20/19/8
f 3/28/9 27/29/9 23/30/9 31/31/9 1/21/9 17/17/9 19/20/9
f 2/23/10 28/32/10 24/33/10 32/34/10 4/24/10 20/19/10 18/18/10
f 26/25/1 4/24/1 62/24/1 61/25/1
f 4/24/1 32/34/1 72/34/1 62/24/1
f 21/16/1 29/22/1 66/22/1 67/16/1
f 2/23/1 25/15/1 59/15/1 60/23/1
f 1/21/1 31/31/1 70/31/1 79/21/1
f 3/28/1 30/27/1 68/27/1 64/28/1
f 29/22/1 1/21/1 79/21/1 66/22/1
f 24/33/1 28/32/1 65/32/1 73/33/1
f 32/34/1 24/33/1 73/33/1 72/34/1
f 23/30/1 27/29/1 63/29/1 71/30/1
f 28/32/1 2/23/1 60/23/1 65/32/1
f 31/31/1 23/30/1 71/30/1 70/31/1
f 22/26/1 26/25/1 61/25/1 69/26/1
f 27/29/1 3/28/1 64/28/1 63/29/1
f 30/27/1 22/26/1 69/26/1 68/27/1
f 83/61/6 63/62/6 64/63/6 68/64/6
f 82/65/6 74/66/6 69/67/6 61/68/6
f 81/69/6 75/70/6 76/71/6 77/72/6
f 80/73/6 70/74/6 71/75/6 78/76/6
f 75/70/6 80/73/6 78/76/6 76/71/6
f 67/77/6 66/78/6 80/73/6 75/70/6
f 66/78/6 79/79/6 70/74/6 80/73/6
f 65/80/6 81/69/6 77/72/6 73/81/6
f 60/82/6 59/83/6 81/69/6 65/80/6
f 59/83/6 67/77/6 75/70/6 81/69/6
f 72/84/6 82/65/6 61/68/6 62/85/6
f 73/81/6 77/72/6 82/65/6 72/84/6
f 77/72/6 76/71/6 74/66/6 82/65/6
f 74/66/6 83/61/6 68/64/6 69/67/6
f 76/71/6 78/76/6 83/61/6 74/66/6
f 78/76/6 71/75/6 63/62/6 83/61/6
usemtl Black
f 33/35/11 49/36/11 54/37/11
f 34/38/12 50/39/12 56/40/12
f 35/41/13 51/42/13 57/43/13
f 36/44/14 52/45/14 58/46/14
f 37/47/15 53/48/15 55/49/15
f 55/49/16 58/46/16 38/50/16
f 55/49/17 53/48/17 58/46/17
f 53/48/18 36/44/18 58/46/18
f 58/46/19 57/43/19 38/50/19
f 58/46/20 52/45/20 57/43/20
f 52/45/21 35/41/21 57/43/21
f 57/43/22 56/40/22 38/50/22
f 57/43/23 51/42/23 56/40/23
f 51/42/24 34/38/24 56/40/24
f 56/40/25 54/37/25 38/50/25
f 56/40/26 50/39/26 54/37/26
f 50/39/27 33/35/27 54/37/27
f 54/37/28 55/49/28 38/50/28
f 54/37/29 49/36/29 55/49/29
f 49/36/30 37/47/30 55/49/30
f 40/51/31 53/48/31 37/47/31
f 40/51/32 47/52/32 53/48/32
f 47/52/33 36/44/33 53/48/33
f 48/53/34 52/45/34 36/44/34
f 48/53/35 45/54/35 52/45/35
f 45/54/36 35/41/36 52/45/36
f 46/55/37 51/42/37 35/41/37
f 46/55/38 43/56/38 51/42/38
f 43/56/39 34/38/39 51/42/39
f 44/57/40 50/39/40 34/38/40
f 44/57/41 41/58/41 50/39/41
f 41/58/42 33/35/42 50/39/42
f 42/59/43 49/36/43 33/35/43
f 42/59/44 39/60/44 49/36/44
f 39/60/45 37/47/45 49/36/45
f 47/52/46 48/53/46 36/44/46
f 45/54/47 46/55/47 35/41/47
f 43/56/48 44/57/48 34/38/48
f 41/58/49 42/59/49 33/35/49
f 39/60/50 40/51/50 37/47/50
l 13 9
l 14 10
l 15 11
l 16 12
